<svg xmlns="http://www.w3.org/2000/svg" viewBox="0 0 960 750" width="960" height="750">
<defs>
  <linearGradient id="g-blue" x1="0%" y1="0%" x2="100%" y2="100%"><stop offset="0%" stop-color="#60A5FA"/><stop offset="100%" stop-color="#3B82F6"/></linearGradient>
  <linearGradient id="g-green" x1="0%" y1="0%" x2="100%" y2="100%"><stop offset="0%" stop-color="#6EE7B7"/><stop offset="100%" stop-color="#34D399"/></linearGradient>
  <linearGradient id="g-purple" x1="0%" y1="0%" x2="100%" y2="100%"><stop offset="0%" stop-color="#C4B5FD"/><stop offset="100%" stop-color="#A78BFA"/></linearGradient>
  <linearGradient id="g-orange" x1="0%" y1="0%" x2="100%" y2="100%"><stop offset="0%" stop-color="#FCD34D"/><stop offset="100%" stop-color="#FBBF24"/></linearGradient>
  <linearGradient id="g-pink" x1="0%" y1="0%" x2="100%" y2="100%"><stop offset="0%" stop-color="#F9A8D4"/><stop offset="100%" stop-color="#F472B6"/></linearGradient>
  <linearGradient id="g-teal" x1="0%" y1="0%" x2="100%" y2="100%"><stop offset="0%" stop-color="#67E8F9"/><stop offset="100%" stop-color="#22D3EE"/></linearGradient>
  <linearGradient id="g-dark" x1="0%" y1="0%" x2="100%" y2="100%"><stop offset="0%" stop-color="#374151"/><stop offset="100%" stop-color="#1F2937"/></linearGradient>
  <linearGradient id="g-bg" x1="0%" y1="0%" x2="100%" y2="100%"><stop offset="0%" stop-color="#F8FAFC"/><stop offset="100%" stop-color="#E2E8F0"/></linearGradient>
  <filter id="shadow" x="-15%" y="-15%" width="140%" height="150%">
    <feDropShadow dx="0" dy="6" stdDeviation="10" flood-color="rgba(0,0,0,0.08)"/>
  </filter>
  <filter id="shadow-sm" x="-10%" y="-10%" width="130%" height="140%">
    <feDropShadow dx="0" dy="3" stdDeviation="5" flood-color="rgba(0,0,0,0.06)"/>
  </filter>
  <marker id="arr" markerWidth="7" markerHeight="7" refX="5" refY="3.5" orient="auto">
    <path d="M0,0 L7,3.5 L0,7 z" fill="#94A3B8"/>
  </marker>
  <marker id="arr-dark" markerWidth="7" markerHeight="7" refX="5" refY="3.5" orient="auto">
    <path d="M0,0 L7,3.5 L0,7 z" fill="#64748B"/>
  </marker>
</defs>

<rect width="960" height="750" fill="url(#g-bg)"/>

<text x="480" y="26" text-anchor="middle" font-family="system-ui,-apple-system,sans-serif" font-size="22" font-weight="700" fill="#1E293B">MiniMax Toolkit · 系统架构</text>
<text x="480" y="46" text-anchor="middle" font-family="system-ui,-apple-system,sans-serif" font-size="12" fill="#64748B">OpenClaw Native · 多模态能力工具包</text>

<rect x="360" y="60" width="240" height="55" rx="27" fill="url(#g-blue)" filter="url(#shadow)"/>
<text x="480" y="84" text-anchor="middle" font-family="system-ui,sans-serif" font-size="16" font-weight="700" fill="#fff">toolkit.py</text>
<text x="480" y="101" text-anchor="middle" font-family="system-ui,sans-serif" font-size="10" fill="rgba(255,255,255,0.8)">Unified CLI 入口</text>

<rect x="30" y="185" width="167" height="156" rx="20" fill="#fff" filter="url(#shadow)"/>
<rect x="30" y="185" width="167" height="156" rx="20" fill="url(#g-blue)" opacity="0.08"/>
<circle cx="80" cy="224" r="22" fill="url(#g-blue)"/>
<text x="80" y="230" text-anchor="middle" font-family="system-ui,sans-serif" font-size="18" fill="#fff">🎙</text>
<text x="114" y="220" font-family="system-ui,sans-serif" font-size="14" font-weight="700" fill="#1E293B">TTS</text>
<text x="114" y="235" font-family="system-ui,sans-serif" font-size="9.5" fill="#64748B">语音合成</text>
<text x="114" y="254" font-family="system-ui,sans-serif" font-size="9" fill="#94A3B8">speech-2.8-hd</text>
<text x="114" y="268" font-family="system-ui,sans-serif" font-size="9" fill="#94A3B8">female-shaonv</text>
<text x="114" y="282" font-family="system-ui,sans-serif" font-size="9" fill="#94A3B8">male-qn-qingse</text>
<text x="114" y="296" font-family="system-ui,sans-serif" font-size="9" fill="#94A3B8">female-yujie</text>

<rect x="214" y="185" width="167" height="156" rx="20" fill="#fff" filter="url(#shadow)"/>
<rect x="214" y="185" width="167" height="156" rx="20" fill="url(#g-orange)" opacity="0.08"/>
<circle cx="264" cy="224" r="22" fill="url(#g-orange)"/>
<text x="264" y="230" text-anchor="middle" font-family="system-ui,sans-serif" font-size="18" fill="#fff">🎨</text>
<text x="298" y="220" font-family="system-ui,sans-serif" font-size="14" font-weight="700" fill="#1E293B">Image</text>
<text x="298" y="235" font-family="system-ui,sans-serif" font-size="9.5" fill="#64748B">图片生成</text>
<text x="298" y="254" font-family="system-ui,sans-serif" font-size="9" fill="#94A3B8">image-01</text>
<text x="298" y="268" font-family="system-ui,sans-serif" font-size="9" fill="#94A3B8">文生图 / 图生图</text>
<text x="298" y="282" font-family="system-ui,sans-serif" font-size="9" fill="#94A3B8">16:9 · 1:1 · 9:16</text>

<rect x="398" y="185" width="167" height="156" rx="20" fill="#fff" filter="url(#shadow)"/>
<rect x="398" y="185" width="167" height="156" rx="20" fill="url(#g-pink)" opacity="0.08"/>
<circle cx="448" cy="224" r="22" fill="url(#g-pink)"/>
<text x="448" y="230" text-anchor="middle" font-family="system-ui,sans-serif" font-size="18" fill="#fff">🎬</text>
<text x="482" y="220" font-family="system-ui,sans-serif" font-size="14" font-weight="700" fill="#1E293B">Video</text>
<text x="482" y="235" font-family="system-ui,sans-serif" font-size="9.5" fill="#64748B">视频生成</text>
<text x="482" y="254" font-family="system-ui,sans-serif" font-size="9" fill="#94A3B8">Hailuo-2.3</text>
<text x="482" y="268" font-family="system-ui,sans-serif" font-size="9" fill="#94A3B8">文/图生视频</text>
<text x="482" y="296" font-family="system-ui,sans-serif" font-size="9" fill="#94A3B8">首尾帧 · 6-10秒</text>

<rect x="582" y="185" width="167" height="156" rx="20" fill="#fff" filter="url(#shadow)"/>
<rect x="582" y="185" width="167" height="156" rx="20" fill="url(#g-purple)" opacity="0.08"/>
<circle cx="632" cy="224" r="22" fill="url(#g-purple)"/>
<text x="632" y="230" text-anchor="middle" font-family="system-ui,sans-serif" font-size="18" fill="#fff">🎵</text>
<text x="666" y="220" font-family="system-ui,sans-serif" font-size="14" font-weight="700" fill="#1E293B">Music</text>
<text x="666" y="235" font-family="system-ui,sans-serif" font-size="9.5" fill="#64748B">音乐生成</text>
<text x="666" y="254" font-family="system-ui,sans-serif" font-size="9" fill="#94A3B8">music-2.5</text>
<text x="666" y="268" font-family="system-ui,sans-serif" font-size="9" fill="#94A3B8">歌词 + 旋律</text>
<text x="666" y="282" font-family="system-ui,sans-serif" font-size="9" fill="#94A3B8">纯音乐模式</text>
<text x="666" y="296" font-family="system-ui,sans-serif" font-size="9" fill="#94A3B8">ffmpeg 后处理</text>

<rect x="766" y="185" width="167" height="156" rx="20" fill="#fff" filter="url(#shadow)"/>
<rect x="766" y="185" width="167" height="156" rx="20" fill="url(#g-teal)" opacity="0.08"/>
<circle cx="816" cy="224" r="22" fill="url(#g-teal)"/>
<text x="816" y="230" text-anchor="middle" font-family="system-ui,sans-serif" font-size="18" fill="#fff">📨</text>
<text x="850" y="220" font-family="system-ui,sans-serif" font-size="14" font-weight="700" fill="#1E293B">Feishu</text>
<text x="850" y="235" font-family="system-ui,sans-serif" font-size="9.5" fill="#64748B">飞书消息</text>
<text x="850" y="254" font-family="system-ui,sans-serif" font-size="9" fill="#94A3B8">图片/音频/视频</text>
<text x="850" y="268" font-family="system-ui,sans-serif" font-size="9" fill="#94A3B8">群聊 list/send</text>
<text x="850" y="282" font-family="system-ui,sans-serif" font-size="9" fill="#94A3B8">原生文件发送</text>

<path d="M 415 115 L 114 115 L 114 185" stroke="#94A3B8" stroke-width="2" fill="none" marker-end="url(#arr)"/>
<path d="M 445 115 L 298 115 L 298 185" stroke="#94A3B8" stroke-width="2" fill="none" marker-end="url(#arr)"/>
<path d="M 480 115 L 482 115 L 482 185" stroke="#94A3B8" stroke-width="2" fill="none" marker-end="url(#arr)"/>
<path d="M 515 115 L 666 115 L 666 185" stroke="#94A3B8" stroke-width="2" fill="none" marker-end="url(#arr)"/>
<path d="M 545 115 L 850 115 L 850 185" stroke="#94A3B8" stroke-width="2" fill="none" marker-end="url(#arr)"/>

<text x="480" y="368" text-anchor="middle" font-family="system-ui,sans-serif" font-size="11" fill="#94A3B8" letter-spacing="1">— 基础设施 —</text>

<rect x="31" y="383" width="166" height="85" rx="16" fill="#fff" filter="url(#shadow-sm)"/>
<rect x="31" y="383" width="166" height="85" rx="16" fill="url(#g-green)" opacity="0.06"/>
<circle cx="69" cy="417" r="18" fill="url(#g-green)"/>
<text x="69" y="423" text-anchor="middle" font-family="system-ui,sans-serif" font-size="14" fill="#fff">⚙</text>
<text x="96" y="410" font-family="system-ui,sans-serif" font-size="12" font-weight="600" fill="#1E293B">CLI 命令</text>
<text x="96" y="425" font-family="system-ui,sans-serif" font-size="9" fill="#64748B">setup · check · env</text>
<text x="96" y="440" font-family="system-ui,sans-serif" font-size="9" fill="#64748B">feishu · doctor</text>
<text x="96" y="455" font-family="system-ui,sans-serif" font-size="8.5" fill="#CBD5E1">tts · image · video · music</text>

<rect x="215" y="383" width="166" height="85" rx="16" fill="#fff" filter="url(#shadow-sm)"/>
<rect x="215" y="383" width="166" height="85" rx="16" fill="url(#g-orange)" opacity="0.06"/>
<circle cx="253" cy="417" r="18" fill="url(#g-orange)"/>
<text x="253" y="423" text-anchor="middle" font-family="system-ui,sans-serif" font-size="14" fill="#fff">📜</text>
<text x="280" y="410" font-family="system-ui,sans-serif" font-size="12" font-weight="600" fill="#1E293B">生成脚本</text>
<text x="280" y="425" font-family="system-ui,sans-serif" font-size="9" fill="#64748B">tts.py · image_gen.py</text>
<text x="280" y="440" font-family="system-ui,sans-serif" font-size="9" fill="#64748B">generate_*.sh</text>
<text x="280" y="455" font-family="system-ui,sans-serif" font-size="8.5" fill="#CBD5E1">lib/common.sh · diagnose.sh</text>

<rect x="399" y="383" width="166" height="85" rx="16" fill="#fff" filter="url(#shadow-sm)"/>
<rect x="399" y="383" width="166" height="85" rx="16" fill="url(#g-purple)" opacity="0.06"/>
<circle cx="437" cy="417" r="18" fill="url(#g-purple)"/>
<text x="437" y="423" text-anchor="middle" font-family="system-ui,sans-serif" font-size="14" fill="#fff">🔌</text>
<text x="464" y="410" font-family="system-ui,sans-serif" font-size="12" font-weight="600" fill="#1E293B">MCP Server</text>
<text x="464" y="425" font-family="system-ui,sans-serif" font-size="9" fill="#64748B">read/edit file</text>
<text x="464" y="440" font-family="system-ui,sans-serif" font-size="9" fill="#64748B">bash · glob</text>
<text x="464" y="455" font-family="system-ui,sans-serif" font-size="8.5" fill="#CBD5E1">FastMCP · Python</text>

<rect x="583" y="383" width="166" height="85" rx="16" fill="#fff" filter="url(#shadow-sm)"/>
<rect x="583" y="383" width="166" height="85" rx="16" fill="url(#g-purple)" opacity="0.06"/>
<circle cx="621" cy="417" r="18" fill="url(#g-purple)"/>
<text x="621" y="423" text-anchor="middle" font-family="system-ui,sans-serif" font-size="14" fill="#fff">🔌</text>
<text x="648" y="410" font-family="system-ui,sans-serif" font-size="12" font-weight="600" fill="#1E293B">mcporter</text>
<text x="648" y="425" font-family="system-ui,sans-serif" font-size="9" fill="#64748B">install-mcporter.sh</text>
<text x="648" y="440" font-family="system-ui,sans-serif" font-size="9" fill="#64748B">mcporter.json</text>
<text x="648" y="455" font-family="system-ui,sans-serif" font-size="8.5" fill="#CBD5E1">uvx · MCP Server</text>

<rect x="767" y="383" width="166" height="85" rx="16" fill="#fff" filter="url(#shadow-sm)"/>
<rect x="767" y="383" width="166" height="85" rx="16" fill="url(#g-dark)" opacity="0.06"/>
<circle cx="805" cy="417" r="18" fill="url(#g-dark)"/>
<text x="805" y="423" text-anchor="middle" font-family="system-ui,sans-serif" font-size="14" fill="#fff">🔐</text>
<text x="832" y="410" font-family="system-ui,sans-serif" font-size="12" font-weight="600" fill="#1E293B">配置与输出</text>
<text x="832" y="425" font-family="system-ui,sans-serif" font-size="9" fill="#64748B">.env · output/</text>
<text x="832" y="440" font-family="system-ui,sans-serif" font-size="9" fill="#64748B">mcporter.json</text>
<text x="832" y="455" font-family="system-ui,sans-serif" font-size="8.5" fill="#CBD5E1">动态路径 · 无硬编码</text>

<path d="M 114 341 L 114 383" stroke="#CBD5E1" stroke-width="1.5" fill="none" marker-end="url(#arr-dark)" stroke-dasharray="4,3"/>
<path d="M 298 341 L 298 383" stroke="#CBD5E1" stroke-width="1.5" fill="none" marker-end="url(#arr-dark)" stroke-dasharray="4,3"/>
<path d="M 482 341 L 482 383" stroke="#CBD5E1" stroke-width="1.5" fill="none" marker-end="url(#arr-dark)" stroke-dasharray="4,3"/>
<path d="M 666 341 L 666 383" stroke="#CBD5E1" stroke-width="1.5" fill="none" marker-end="url(#arr-dark)" stroke-dasharray="4,3"/>
<path d="M 850 341 L 850 383" stroke="#CBD5E1" stroke-width="1.5" fill="none" marker-end="url(#arr-dark)" stroke-dasharray="4,3"/>

<text x="480" y="505" text-anchor="middle" font-family="system-ui,sans-serif" font-size="11" fill="#94A3B8" letter-spacing="1">— API 服务 —</text>

<rect x="40" y="515" width="270" height="100" rx="18" fill="url(#g-blue)" filter="url(#shadow)"/>
<text x="175" y="549" text-anchor="middle" font-family="system-ui,sans-serif" font-size="15" font-weight="700" fill="#fff">MiniMax API</text>
<text x="175" y="569" text-anchor="middle" font-family="system-ui,sans-serif" font-size="10" fill="rgba(255,255,255,0.85)">api.minimaxi.com</text>
<text x="175" y="587" text-anchor="middle" font-family="system-ui,sans-serif" font-size="9" fill="rgba(255,255,255,0.7)">TTS · Image · Music · Video</text>

<rect x="345" y="515" width="270" height="100" rx="18" fill="url(#g-teal)" filter="url(#shadow)"/>
<text x="480" y="549" text-anchor="middle" font-family="system-ui,sans-serif" font-size="15" font-weight="700" fill="#fff">Feishu API</text>
<text x="480" y="569" text-anchor="middle" font-family="system-ui,sans-serif" font-size="10" fill="rgba(255,255,255,0.85)">open.feishu.cn</text>
<text x="480" y="587" text-anchor="middle" font-family="system-ui,sans-serif" font-size="9" fill="rgba(255,255,255,0.7)">im/v1/messages · im/v1/chats</text>

<rect x="650" y="515" width="270" height="100" rx="18" fill="url(#g-purple)" filter="url(#shadow)"/>
<text x="785" y="549" text-anchor="middle" font-family="system-ui,sans-serif" font-size="15" font-weight="700" fill="#fff">mcporter</text>
<text x="785" y="569" text-anchor="middle" font-family="system-ui,sans-serif" font-size="10" fill="rgba(255,255,255,0.85)">minimax-coding-plan-mcp</text>
<text x="785" y="587" text-anchor="middle" font-family="system-ui,sans-serif" font-size="9" fill="rgba(255,255,255,0.7)">uvx · MCP Protocol</text>

<path d="M 114 468 L 114 492 L 175 492 L 175 515" stroke="#94A3B8" stroke-width="1.5" fill="none" marker-end="url(#arr)"/>
<path d="M 298 468 L 298 492 L 175 492 L 175 515" stroke="#94A3B8" stroke-width="1.5" fill="none" marker-end="url(#arr)"/>
<path d="M 482 468 L 482 492 L 480 492 L 480 515" stroke="#94A3B8" stroke-width="1.5" fill="none" marker-end="url(#arr)"/>
<path d="M 666 468 L 666 492 L 785 492 L 785 515" stroke="#94A3B8" stroke-width="1.5" fill="none" marker-end="url(#arr)"/>
<path d="M 850 468 L 850 492 L 785 492 L 785 515" stroke="#94A3B8" stroke-width="1.5" fill="none" marker-end="url(#arr)"/>

<rect x="30" y="645" width="900" height="50" rx="14" fill="#fff" filter="url(#shadow-sm)"/>
<rect x="30" y="645" width="900" height="50" rx="14" fill="#F1F5F9" opacity="0.5"/>
<rect x="55" y="658" width="10" height="10" rx="3" fill="url(#g-blue)"/>
<text x="72" y="667" font-family="system-ui,sans-serif" font-size="10" fill="#475569">TTS 语音合成</text>
<rect x="170" y="658" width="10" height="10" rx="3" fill="url(#g-orange)"/>
<text x="187" y="667" font-family="system-ui,sans-serif" font-size="10" fill="#475569">Image 图片生成</text>
<rect x="295" y="658" width="10" height="10" rx="3" fill="url(#g-pink)"/>
<text x="312" y="667" font-family="system-ui,sans-serif" font-size="10" fill="#475569">Video 视频生成</text>
<rect x="415" y="658" width="10" height="10" rx="3" fill="url(#g-purple)"/>
<text x="432" y="667" font-family="system-ui,sans-serif" font-size="10" fill="#475569">Music 音乐生成</text>
<rect x="535" y="658" width="10" height="10" rx="3" fill="url(#g-teal)"/>
<text x="552" y="667" font-family="system-ui,sans-serif" font-size="10" fill="#475569">Feishu 飞书推送</text>
<rect x="650" y="658" width="10" height="10" rx="3" fill="url(#g-green)"/>
<text x="667" y="667" font-family="system-ui,sans-serif" font-size="10" fill="#475569">CLI 命令</text>
<rect x="740" y="658" width="10" height="10" rx="3" fill="url(#g-blue)"/>
<text x="757" y="667" font-family="system-ui,sans-serif" font-size="10" fill="#475569">API 服务</text>
<line x1="840" y1="663" x2="870" y2="663" stroke="#94A3B8" stroke-width="1.5" marker-end="url(#arr)"/>
<text x="878" y="667" font-family="system-ui,sans-serif" font-size="10" fill="#475569">数据流</text>
</svg>
